# xmcd CD database file
#
# Track frame offsets:
#	150
#	11625
#	23625
#	37875
#	51300
#	63980
#	75975
#	88875
#	102075
#	113625
#	127125
#	139725
#	151950
#	164025
#	177525
#	189225
#	202950
#	215107
#
# Disc length: 3068 seconds
#
# Revision: 0
# Processed by: cddbd v1.4PL0 Copyright (c) Steve Scherf et al.
# Submitted via: CDex 1.50beta9
#
DISCID=f50bfa12
DTITLE=Lars Gullin - Jazz i Blåton
DYEAR=1900
DGENRE=Jazz
TTITLE0=Deep Purple
TTITLE1=Summertime
TTITLE2=Laura
TTITLE3=I Got It Bad
TTITLE4=Blue Lou
TTITLE5=Gull In a Gulch
TTITLE6=That's It
TTITLE7=Alone
TTITLE8=Continental
TTITLE9=All Yours
TTITLE10=Lullaby In Rhythm
TTITLE11=Jumpin With Symphony Sid
TTITLE12=Dancing In the Dark
TTITLE13=All God's Chillun' Got Rhythm
TTITLE14=Fjäriln Vingad Syns på Haga
TTITLE15=Danny - 0
TTITLE16=Pick Yourself Up
TTITLE17=Strike Up the Band
EXTD=
EXTT0=
EXTT1=
EXTT2=
EXTT3=
EXTT4=
EXTT5=
EXTT6=
EXTT7=
EXTT8=
EXTT9=
EXTT10=
EXTT11=
EXTT12=
EXTT13=
EXTT14=
EXTT15=
EXTT16=
EXTT17=
PLAYORDER=
